<?xml version="1.0" standalone="no"?>
<!DOCTYPE svg PUBLIC "-//W3C//DTD SVG 20010904//EN"
 "http://www.w3.org/TR/2001/REC-SVG-20010904/DTD/svg10.dtd">
<svg version="1.0" xmlns="http://www.w3.org/2000/svg"
 width="120.000000pt" height="120.000000pt" viewBox="0 0 120.000000 120.000000"
 preserveAspectRatio="xMidYMid meet">
<metadata>
Created by potrace 1.11, written by Peter Selinger 2001-2013
</metadata>
<g transform="translate(0.000000,120.000000) scale(0.100000,-0.100000)"
fill="#000000" stroke="none">
<path d="M547 1123 c-2 -2 -15 -6 -28 -8 -67 -13 -89 -20 -144 -46 -137 -65
-238 -186 -281 -339 -16 -55 -24 -196 -13 -215 3 -5 11 -30 18 -55 12 -42 34
-93 66 -149 22 -39 103 -118 155 -151 104 -67 247 -97 362 -77 225 40 400 219
435 445 8 54 9 153 2 158 -4 2 -10 21 -14 41 -8 42 -54 146 -67 151 -4 2 -8 9
-8 16 0 15 -92 107 -135 137 -37 25 -127 67 -157 74 -56 12 -86 17 -135 19
-29 2 -54 2 -56 -1z"/>
</g>
</svg>
